<?xml version="1.0" encoding="utf-8"?>
<!-- Generator: Adobe Illustrator 26.3.1, SVG Export Plug-In . SVG Version: 6.00 Build 0)  -->
<svg version="1.1" id="Layer_1" xmlns="http://www.w3.org/2000/svg" xmlns:xlink="http://www.w3.org/1999/xlink" x="0px" y="0px"
	 viewBox="0 0 2500 750" style="enable-background:new 0 0 2500 750;" xml:space="preserve">
<style type="text/css">
	.st0{fill:#E4032E;}
	.st1{fill:#FFD000;}
	.st2{fill:#004F9F;}
	.st3{fill:#1EAFD6;}
	.st4{fill:#122C3B;}
</style>
<g>
	<path class="st0" d="M529.1,323.6l0-241.8c0-9.7-7.8-17.5-17.5-17.5h-83.3l0,333.2c0,13.4,16.2,20.1,25.6,10.6l68.6-68.6
		C526.7,335.3,529.1,329.6,529.1,323.6z"/>
	<path class="st1" d="M428.3,64.3l-158.4,0c-6,0-11.7,2.4-15.9,6.6l-68.6,68.6c-9.4,9.4-2.8,25.6,10.6,25.6l232.4,0V64.3z"/>
	<path class="st2" d="M338.4,514.3l-241.8,0c-9.7,0-17.5-7.8-17.5-17.5l0-83.3l333.2,0c13.4,0,20.1,16.2,10.6,25.6l-68.6,68.6
		C350,512,344.3,514.3,338.4,514.3z"/>
	<path class="st3" d="M79.1,413.5l0-158.4c0-6,2.4-11.7,6.6-15.9l68.6-68.6c9.4-9.4,25.6-2.8,25.6,10.6l0,232.4L79.1,413.5z"/>
</g>
<g>
	<path class="st4" d="M1058.9,492.1H856.1c-111.8,0-202.8-91-202.8-202.8c0-111.8,91-202.8,202.8-202.8s202.8,91,202.8,202.8V492.1z
		 M856.1,168.9c-66.4,0-120.4,54-120.4,120.4c0,66.4,54,120.4,120.4,120.4h120.4V289.3C976.5,222.9,922.5,168.9,856.1,168.9z"/>
	<path class="st4" d="M2419.7,492.1h-202.8c-111.8,0-202.8-91-202.8-202.8c0-111.8,91-202.8,202.8-202.8
		c111.8,0,202.8,91,202.8,202.8V492.1z M2216.9,168.9c-66.4,0-120.4,54-120.4,120.4c0,66.4,54,120.4,120.4,120.4h120.4V289.3
		C2337.4,222.9,2283.3,168.9,2216.9,168.9z"/>
	<path class="st4" d="M1763.3,492.2c-111.9,0-202.9-91-202.9-202.9V99h82.4v190.3c0,66.4,54.1,120.5,120.5,120.5
		c66.4,0,120.5-54.1,120.5-120.5V99h82.4v190.3C1966.2,401.2,1875.2,492.2,1763.3,492.2z"/>
	<path class="st4" d="M1309.6,86.5c-111.8,0-202.8,91-202.8,202.8c0,111.8,91,202.8,202.8,202.8l82.4-82.4h-82.4
		c-66.4,0-120.4-54-120.4-120.4c0-66.4,54-120.4,120.4-120.4c66.4,0,120.4,54,120.4,120.4v396.4h82.4V289.3
		C1512.4,177.5,1421.5,86.5,1309.6,86.5z"/>
</g>
</svg>
